<svg xmlns="http://www.w3.org/2000/svg" viewBox="0 0 560 320" role="img">
<rect width="560" height="320" fill="#fbfaf7"/>
<text x="400" y="42" font-family="Space Grotesk, Inter, system-ui, sans-serif" font-size="20" font-weight="700" fill="#16161d" text-anchor="middle">Extract only the pages you need</text><rect x="70" y="80" width="150" height="210" rx="6" fill="#ffffff" stroke="#e7e4dc" stroke-width="2"/><rect x="86" y="100" width="118" height="14" rx="3" fill="#e7e4dc" opacity="0.7"/><rect x="86" y="122" width="118" height="14" rx="3" fill="#e7e4dc" opacity="0.7"/><rect x="86" y="144" width="118" height="14" rx="3" fill="#e7e4dc" opacity="0.7"/><rect x="86" y="166" width="118" height="14" rx="3" fill="#ff5d52" opacity="1"/><text x="95" y="177" font-family="Space Grotesk, Inter, system-ui, sans-serif" font-size="10" font-weight="700" fill="#fff" text-anchor="start">7</text><rect x="86" y="188" width="118" height="14" rx="3" fill="#ff5d52" opacity="1"/><text x="95" y="199" font-family="Space Grotesk, Inter, system-ui, sans-serif" font-size="10" font-weight="700" fill="#fff" text-anchor="start">8</text><rect x="86" y="210" width="118" height="14" rx="3" fill="#ff5d52" opacity="1"/><text x="95" y="221" font-family="Space Grotesk, Inter, system-ui, sans-serif" font-size="10" font-weight="700" fill="#fff" text-anchor="start">9</text><rect x="86" y="232" width="118" height="14" rx="3" fill="#ff5d52" opacity="1"/><text x="95" y="243" font-family="Space Grotesk, Inter, system-ui, sans-serif" font-size="10" font-weight="700" fill="#fff" text-anchor="start">10</text><rect x="86" y="254" width="118" height="14" rx="3" fill="#e7e4dc" opacity="0.7"/><path d="M240 185 L320 185" stroke="#16161d" stroke-width="3" marker-end="url(#ar2)"/><defs><marker id="ar2" markerWidth="10" markerHeight="10" refX="6" refY="3" orient="auto"><path d="M0 0 L6 3 L0 6 Z" fill="#16161d"/></marker></defs><text x="280" y="175" font-family="Space Grotesk, Inter, system-ui, sans-serif" font-size="12" font-weight="600" fill="#6b6b76" text-anchor="middle">pages 7–10</text><rect x="345" y="120" width="130" height="150" rx="6" fill="#ffffff" stroke="#ff5d52" stroke-width="2.5"/><rect x="361" y="138" width="98" height="14" rx="3" fill="#ff5d52"/><text x="370" y="149" font-family="Space Grotesk, Inter, system-ui, sans-serif" font-size="10" font-weight="700" fill="#fff" text-anchor="start">7</text><rect x="361" y="164" width="98" height="14" rx="3" fill="#ff5d52"/><text x="370" y="175" font-family="Space Grotesk, Inter, system-ui, sans-serif" font-size="10" font-weight="700" fill="#fff" text-anchor="start">8</text><rect x="361" y="190" width="98" height="14" rx="3" fill="#ff5d52"/><text x="370" y="201" font-family="Space Grotesk, Inter, system-ui, sans-serif" font-size="10" font-weight="700" fill="#fff" text-anchor="start">9</text><rect x="361" y="216" width="98" height="14" rx="3" fill="#ff5d52"/><text x="370" y="227" font-family="Space Grotesk, Inter, system-ui, sans-serif" font-size="10" font-weight="700" fill="#fff" text-anchor="start">10</text><text x="410" y="290" font-family="Space Grotesk, Inter, system-ui, sans-serif" font-size="12" font-weight="500" fill="#6b6b76" text-anchor="middle">new file, layout intact</text>
</svg>