<svg xmlns="http://www.w3.org/2000/svg" viewBox="0 0 600 300" role="img">
<rect width="600" height="300" fill="#fbfaf7"/>
<text x="400" y="40" font-family="Space Grotesk, Inter, system-ui, sans-serif" font-size="20" font-weight="700" fill="#16161d" text-anchor="middle">Fillable vs non-fillable PDF forms</text><rect x="70" y="80" width="200" height="200" rx="6" fill="#ffffff" stroke="#1f9d63" stroke-width="2.5"/><text x="170" y="108" font-family="Space Grotesk, Inter, system-ui, sans-serif" font-size="12" font-weight="700" fill="#1f9d63" text-anchor="middle">fillable</text><text x="92" y="140" font-family="Space Grotesk, Inter, system-ui, sans-serif" font-size="11" font-weight="600" fill="#6b6b76" text-anchor="start">Name</text><rect x="92" y="148" width="156" height="26" rx="5" fill="#fff" stroke="#1f9d63" stroke-width="2"/><line x1="100" y1="153" x2="100" y2="169" stroke="#16161d" stroke-width="2"/><text x="106" y="166" font-family="Space Grotesk, Inter, system-ui, sans-serif" font-size="13" font-weight="600" fill="#16161d" text-anchor="start">Hill</text><text x="92" y="200" font-family="Space Grotesk, Inter, system-ui, sans-serif" font-size="11" font-weight="600" fill="#6b6b76" text-anchor="start">Date</text><rect x="92" y="208" width="156" height="26" rx="5" fill="#fff" stroke="#1f9d63" stroke-width="2"/><rect x="330" y="80" width="200" height="200" rx="6" fill="#ffffff" stroke="#e7e4dc" stroke-width="2.5"/><text x="430" y="108" font-family="Space Grotesk, Inter, system-ui, sans-serif" font-size="12" font-weight="700" fill="#6b6b76" text-anchor="middle">non-fillable (image)</text><text x="352" y="140" font-family="Space Grotesk, Inter, system-ui, sans-serif" font-size="11" font-weight="600" fill="#6b6b76" text-anchor="start">Name</text><rect x="352" y="148" width="156" height="26" rx="5" fill="#fbfaf7" stroke="#e7e4dc" stroke-width="2"/><circle cx="500" cy="161" r="13" fill="none" stroke="#ff5d52" stroke-width="2.5"/><path d="M495 161 v-4 a5 5 0 0 1 10 0 v4" fill="none" stroke="#ff5d52" stroke-width="2.5"/><rect x="495" y="160" width="10" height="8" rx="1.5" fill="#ff5d52"/><text x="430" y="250" font-family="Space Grotesk, Inter, system-ui, sans-serif" font-size="11" font-weight="600" fill="#ff5d52" text-anchor="middle">can't type — it's a picture</text>
</svg>