<svg xmlns="http://www.w3.org/2000/svg" viewBox="0 0 800 330" role="img">
<rect width="800" height="330" fill="#fbfaf7"/>
<text x="400" y="42" font-family="Space Grotesk, Inter, system-ui, sans-serif" font-size="17" font-weight="500" fill="#6b6b76" text-anchor="middle">20 years helping people with everyday document problems</text><rect x="60" y="300" width="680" height="14" rx="4" fill="#e7e4dc"/><rect x="250" y="110" width="300" height="180" rx="10" fill="#fff" stroke="#16161d" stroke-width="3"/><rect x="385" y="290" width="30" height="22" fill="#e7e4dc"/><rect x="280" y="150" width="108" height="4" rx="2" fill="#e7e4dc"/><rect x="280" y="164" width="180" height="4" rx="2" fill="#e7e4dc"/><rect x="280" y="178" width="180" height="4" rx="2" fill="#e7e4dc"/><rect x="280" y="192" width="108" height="4" rx="2" fill="#e7e4dc"/><rect x="280" y="206" width="180" height="4" rx="2" fill="#e7e4dc"/><rect x="280" y="220" width="180" height="4" rx="2" fill="#e7e4dc"/><rect x="280" y="234" width="108" height="4" rx="2" fill="#e7e4dc"/><rect x="280" y="150" width="120" height="10" rx="3" fill="#ff5d52"/><circle cx="160" cy="190" r="34" fill="#ff5d52"/><path d="M104 300 a56 56 0 0 1 112 0 Z" fill="#16161d"/><rect x="600" y="262" width="40" height="34" rx="4" fill="#fff" stroke="#16161d" stroke-width="2.5"/><path d="M640 270 h12 a8 8 0 0 1 0 16 h-12" fill="none" stroke="#16161d" stroke-width="2.5"/><path d="M610 250 q4 -8 0 -16 M622 250 q4 -8 0 -16" stroke="#6b6b76" stroke-width="2" fill="none"/>
</svg>