<svg xmlns="http://www.w3.org/2000/svg" viewBox="0 0 620 330" role="img">
<rect width="620" height="330" fill="#fbfaf7"/>
<text x="400" y="42" font-family="Space Grotesk, Inter, system-ui, sans-serif" font-size="20" font-weight="700" fill="#16161d" text-anchor="middle">Merge PDFs — keep pages in the right order</text><rect x="70" y="90" width="90" height="120" rx="6" fill="#ffffff" stroke="#e7e4dc" stroke-width="2"/><rect x="82" y="118" width="39" height="4" rx="2" fill="#e7e4dc"/><rect x="82" y="129" width="66" height="4" rx="2" fill="#e7e4dc"/><rect x="82" y="140" width="66" height="4" rx="2" fill="#e7e4dc"/><rect x="82" y="151" width="39" height="4" rx="2" fill="#e7e4dc"/><rect x="82" y="162" width="66" height="4" rx="2" fill="#e7e4dc"/><rect x="82" y="173" width="66" height="4" rx="2" fill="#e7e4dc"/><rect x="82" y="184" width="39" height="4" rx="2" fill="#e7e4dc"/><circle cx="88" cy="104" r="9" fill="#ff5d52"/><text x="88" y="109" font-family="Space Grotesk, Inter, system-ui, sans-serif" font-size="11" font-weight="700" fill="#fff" text-anchor="middle">A</text><rect x="140" y="90" width="90" height="120" rx="6" fill="#ffffff" stroke="#e7e4dc" stroke-width="2"/><rect x="152" y="118" width="39" height="4" rx="2" fill="#e7e4dc"/><rect x="152" y="129" width="66" height="4" rx="2" fill="#e7e4dc"/><rect x="152" y="140" width="66" height="4" rx="2" fill="#e7e4dc"/><rect x="152" y="151" width="39" height="4" rx="2" fill="#e7e4dc"/><rect x="152" y="162" width="66" height="4" rx="2" fill="#e7e4dc"/><rect x="152" y="173" width="66" height="4" rx="2" fill="#e7e4dc"/><rect x="152" y="184" width="39" height="4" rx="2" fill="#e7e4dc"/><circle cx="158" cy="104" r="9" fill="#42A5F5"/><text x="158" y="109" font-family="Space Grotesk, Inter, system-ui, sans-serif" font-size="11" font-weight="700" fill="#fff" text-anchor="middle">B</text><rect x="210" y="90" width="90" height="120" rx="6" fill="#ffffff" stroke="#e7e4dc" stroke-width="2"/><rect x="222" y="118" width="39" height="4" rx="2" fill="#e7e4dc"/><rect x="222" y="129" width="66" height="4" rx="2" fill="#e7e4dc"/><rect x="222" y="140" width="66" height="4" rx="2" fill="#e7e4dc"/><rect x="222" y="151" width="39" height="4" rx="2" fill="#e7e4dc"/><rect x="222" y="162" width="66" height="4" rx="2" fill="#e7e4dc"/><rect x="222" y="173" width="66" height="4" rx="2" fill="#e7e4dc"/><rect x="222" y="184" width="39" height="4" rx="2" fill="#e7e4dc"/><circle cx="228" cy="104" r="9" fill="#1f9d63"/><text x="228" y="109" font-family="Space Grotesk, Inter, system-ui, sans-serif" font-size="11" font-weight="700" fill="#fff" text-anchor="middle">C</text><path d="M300 150 L360 150" stroke="#16161d" stroke-width="3" marker-end="url(#ar)"/><defs><marker id="ar" markerWidth="10" markerHeight="10" refX="6" refY="3" orient="auto"><path d="M0 0 L6 3 L0 6 Z" fill="#16161d"/></marker></defs><rect x="400" y="80" width="150" height="200" rx="6" fill="#ffffff" stroke="#16161d" stroke-width="2.5"/><circle cx="425" cy="110" r="11" fill="#ff5d52"/><text x="425" y="115" font-family="Space Grotesk, Inter, system-ui, sans-serif" font-size="12" font-weight="700" fill="#fff" text-anchor="middle">1</text><rect x="448" y="100" width="51" height="4" rx="2" fill="#e7e4dc"/><rect x="448" y="111" width="85" height="4" rx="2" fill="#e7e4dc"/><rect x="448" y="122" width="85" height="4" rx="2" fill="#e7e4dc"/><circle cx="425" cy="170" r="11" fill="#42A5F5"/><text x="425" y="175" font-family="Space Grotesk, Inter, system-ui, sans-serif" font-size="12" font-weight="700" fill="#fff" text-anchor="middle">2</text><rect x="448" y="160" width="51" height="4" rx="2" fill="#e7e4dc"/><rect x="448" y="171" width="85" height="4" rx="2" fill="#e7e4dc"/><rect x="448" y="182" width="85" height="4" rx="2" fill="#e7e4dc"/><circle cx="425" cy="230" r="11" fill="#1f9d63"/><text x="425" y="235" font-family="Space Grotesk, Inter, system-ui, sans-serif" font-size="12" font-weight="700" fill="#fff" text-anchor="middle">3</text><rect x="448" y="220" width="51" height="4" rx="2" fill="#e7e4dc"/><rect x="448" y="231" width="85" height="4" rx="2" fill="#e7e4dc"/><rect x="448" y="242" width="85" height="4" rx="2" fill="#e7e4dc"/><text x="475" y="300" font-family="Space Grotesk, Inter, system-ui, sans-serif" font-size="13" font-weight="500" fill="#6b6b76" text-anchor="middle">one clean file</text>
</svg>