<svg xmlns="http://www.w3.org/2000/svg" viewBox="0 0 560 295" role="img">
<rect width="560" height="295" fill="#fbfaf7"/>
<text x="400" y="40" font-family="Space Grotesk, Inter, system-ui, sans-serif" font-size="20" font-weight="700" fill="#16161d" text-anchor="middle">Same PDF, two devices — layout can shift</text><rect x="70" y="80" width="210" height="150" rx="8" fill="#fff" stroke="#e7e4dc" stroke-width="2"/><rect x="60" y="232" width="230" height="10" rx="4" fill="#e7e4dc"/><rect x="92" y="108" width="96" height="4" rx="2" fill="#e7e4dc"/><rect x="92" y="119" width="160" height="4" rx="2" fill="#e7e4dc"/><rect x="92" y="130" width="160" height="4" rx="2" fill="#e7e4dc"/><rect x="92" y="141" width="96" height="4" rx="2" fill="#e7e4dc"/><rect x="92" y="152" width="160" height="4" rx="2" fill="#e7e4dc"/><rect x="92" y="163" width="160" height="4" rx="2" fill="#e7e4dc"/><rect x="92" y="174" width="96" height="4" rx="2" fill="#e7e4dc"/><text x="175" y="255" font-family="Space Grotesk, Inter, system-ui, sans-serif" font-size="12" font-weight="600" fill="#1f9d63" text-anchor="middle">desktop — clean</text><rect x="360" y="70" width="120" height="180" rx="14" fill="#fff" stroke="#e7e4dc" stroke-width="2"/><rect x="378" y="96" width="84" height="5" rx="2" fill="#e7e4dc"/><rect x="378" y="116" width="84" height="5" rx="2" fill="#e7e4dc"/><rect x="392" y="136" width="70" height="5" rx="2" fill="#ff5d52"/><rect x="378" y="156" width="84" height="5" rx="2" fill="#e7e4dc"/><rect x="392" y="176" width="70" height="5" rx="2" fill="#ff5d52"/><rect x="378" y="196" width="84" height="5" rx="2" fill="#e7e4dc"/><rect x="378" y="216" width="84" height="5" rx="2" fill="#e7e4dc"/><text x="420" y="272" font-family="Space Grotesk, Inter, system-ui, sans-serif" font-size="12" font-weight="600" fill="#ff5d52" text-anchor="middle">mobile — font swap, shifted</text>
</svg>