<svg xmlns="http://www.w3.org/2000/svg" viewBox="0 0 620 310" role="img">
<rect width="620" height="310" fill="#fbfaf7"/>
<text x="400" y="40" font-family="Space Grotesk, Inter, system-ui, sans-serif" font-size="20" font-weight="700" fill="#16161d" text-anchor="middle">OCR turns a picture of text into real text</text><rect x="70" y="80" width="180" height="200" rx="6" fill="#ffffff" stroke="#e7e4dc" stroke-width="2"/><text x="160" y="108" font-family="Space Grotesk, Inter, system-ui, sans-serif" font-size="11" font-weight="600" fill="#6b6b76" text-anchor="middle">scanned image</text><path d="M92 135 q40 -7 80 0 q40 7 76 0" stroke="#6b6b76" stroke-width="3" fill="none" opacity="0.55"/><path d="M92 157 q40 -7 80 0 q40 7 76 0" stroke="#6b6b76" stroke-width="3" fill="none" opacity="0.55"/><path d="M92 179 q40 -7 80 0 q40 7 76 0" stroke="#6b6b76" stroke-width="3" fill="none" opacity="0.55"/><path d="M92 201 q40 -7 80 0 q40 7 76 0" stroke="#6b6b76" stroke-width="3" fill="none" opacity="0.55"/><path d="M92 223 q40 -7 80 0 q40 7 76 0" stroke="#6b6b76" stroke-width="3" fill="none" opacity="0.55"/><path d="M92 245 q40 -7 80 0 q40 7 76 0" stroke="#6b6b76" stroke-width="3" fill="none" opacity="0.55"/><path d="M275 180 L345 180" stroke="#16161d" stroke-width="3" marker-end="url(#ar5)"/><defs><marker id="ar5" markerWidth="10" markerHeight="10" refX="6" refY="3" orient="auto"><path d="M0 0 L6 3 L0 6 Z" fill="#16161d"/></marker></defs><text x="310" y="170" font-family="Space Grotesk, Inter, system-ui, sans-serif" font-size="12" font-weight="700" fill="#ff5d52" text-anchor="middle">OCR</text><rect x="370" y="80" width="180" height="200" rx="6" fill="#ffffff" stroke="#1f9d63" stroke-width="2.5"/><text x="460" y="108" font-family="Space Grotesk, Inter, system-ui, sans-serif" font-size="11" font-weight="700" fill="#1f9d63" text-anchor="middle">searchable text</text><rect x="392" y="128" width="100" height="9" rx="2" fill="#16161d" opacity="0.8"/><rect x="392" y="150" width="140" height="9" rx="2" fill="#16161d" opacity="0.8"/><rect x="392" y="172" width="100" height="9" rx="2" fill="#16161d" opacity="0.8"/><rect x="392" y="194" width="140" height="9" rx="2" fill="#16161d" opacity="0.8"/><rect x="392" y="216" width="100" height="9" rx="2" fill="#16161d" opacity="0.8"/><rect x="392" y="238" width="140" height="9" rx="2" fill="#16161d" opacity="0.8"/><rect x="392" y="150" width="46" height="13" fill="#ff5d52" opacity="0.25"/>
</svg>