<svg xmlns="http://www.w3.org/2000/svg" viewBox="0 0 560 300" role="img">
<rect width="560" height="300" fill="#fbfaf7"/>
<text x="400" y="40" font-family="Space Grotesk, Inter, system-ui, sans-serif" font-size="20" font-weight="700" fill="#16161d" text-anchor="middle">Sign on screen — skip the printer</text><rect x="70" y="120" width="150" height="90" rx="10" fill="#fff" stroke="#e7e4dc" stroke-width="2"/><rect x="95" y="100" width="100" height="30" fill="#fff" stroke="#e7e4dc" stroke-width="2"/><rect x="95" y="200" width="100" height="40" fill="#fbfaf7" stroke="#e7e4dc" stroke-width="2"/><circle cx="145" cy="165" r="48" fill="none" stroke="#ff5d52" stroke-width="6"/><line x1="112" y1="132" x2="178" y2="198" stroke="#ff5d52" stroke-width="6"/><text x="145" y="265" font-family="Space Grotesk, Inter, system-ui, sans-serif" font-size="13" font-weight="600" fill="#6b6b76" text-anchor="middle">no printing</text><path d="M250 175 L320 175" stroke="#16161d" stroke-width="3" marker-end="url(#ar4)"/><defs><marker id="ar4" markerWidth="10" markerHeight="10" refX="6" refY="3" orient="auto"><path d="M0 0 L6 3 L0 6 Z" fill="#16161d"/></marker></defs><rect x="345" y="95" width="160" height="180" rx="6" fill="#ffffff" stroke="#16161d" stroke-width="2.5"/><rect x="365" y="120" width="72" height="4" rx="2" fill="#e7e4dc"/><rect x="365" y="131" width="120" height="4" rx="2" fill="#e7e4dc"/><rect x="365" y="142" width="120" height="4" rx="2" fill="#e7e4dc"/><rect x="365" y="153" width="72" height="4" rx="2" fill="#e7e4dc"/><rect x="365" y="164" width="120" height="4" rx="2" fill="#e7e4dc"/><text x="365" y="235" font-family="cursive" font-size="30" fill="#ff5d52">Hill</text><line x1="365" y1="245" x2="485" y2="245" stroke="#e7e4dc" stroke-width="2"/><text x="425" y="272" font-family="Space Grotesk, Inter, system-ui, sans-serif" font-size="11" font-weight="500" fill="#6b6b76" text-anchor="middle">signed</text>
</svg>